<svg xmlns="http://www.w3.org/2000/svg" xmlns:xlink="http://www.w3.org/1999/xlink" version="1.2" width="215.90mm" height="279.40mm" viewBox="0 0 122.8590 158.9940">
<!-- Page: 1/3 -->
<text transform="translate(5.6906, 2.8453)" font-family="Century Schoolbook L" font-size="2.1995" text-anchor="start" fill="currentColor">
<tspan>
 </tspan>
</text>
<text transform="translate(44.2213, 6.4402)" font-family="Century Schoolbook L" font-weight="bold" font-size="3.4916" text-anchor="start" fill="currentColor">
<tspan>
Haruspex et Augur</tspan>
</text>
<text transform="translate(52.6547, 9.9402)" font-family="Century Schoolbook L" font-weight="bold" font-size="2.4685" text-anchor="start" fill="currentColor">
<tspan>
for solo piano</tspan>
</text>
<text transform="translate(104.0233, 13.4402)" font-family="Century Schoolbook L" font-size="2.1995" text-anchor="start" fill="currentColor">
<tspan>
Nathan Bibb</tspan>
</text>
<rect transform="translate(68.9535, 27.0743)" x="0.0000" y="-2.0000" width="0.1900" height="4.0000" ry="0.0000" fill="currentColor"/>
<rect transform="translate(113.0994, 17.7743)" x="0.0000" y="-2.0000" width="0.1900" height="4.0000" ry="0.0000" fill="currentColor"/>
<rect transform="translate(45.5779, 17.7743)" x="0.0000" y="-2.0000" width="0.1900" height="4.0000" ry="0.0000" fill="currentColor"/>
<rect transform="translate(113.0994, 27.0743)" x="0.0000" y="-2.0000" width="0.1900" height="4.0000" ry="0.0000" fill="currentColor"/>
<rect transform="translate(113.0994, 13.9743)" x="0.0000" y="5.8500" width="0.1900" height="5.2000" ry="0.0000" fill="currentColor"/>
<rect transform="translate(92.1794, 13.9743)" x="0.0000" y="5.8500" width="0.1900" height="5.2000" ry="0.0000" fill="currentColor"/>
<rect transform="translate(45.5779, 27.0743)" x="0.0000" y="-2.0000" width="0.1900" height="4.0000" ry="0.0000" fill="currentColor"/>
<line transform="translate(14.2264, 19.7743)" stroke-linejoin="round" stroke-linecap="round" stroke-width="0.1000" stroke="currentColor" x1="0.0500" y1="-0.0000" x2="102.8921" y2="-0.0000"/>
<line transform="translate(14.2264, 18.7743)" stroke-linejoin="round" stroke-linecap="round" stroke-width="0.1000" stroke="currentColor" x1="0.0500" y1="-0.0000" x2="102.8921" y2="-0.0000"/>
<line transform="translate(14.2264, 17.7743)" stroke-linejoin="round" stroke-linecap="round" stroke-width="0.1000" stroke="currentColor" x1="0.0500" y1="-0.0000" x2="102.8921" y2="-0.0000"/>
<line transform="translate(14.2264, 16.7743)" stroke-linejoin="round" stroke-linecap="round" stroke-width="0.1000" stroke="currentColor" x1="0.0500" y1="-0.0000" x2="102.8921" y2="-0.0000"/>
<line transform="translate(14.2264, 15.7743)" stroke-linejoin="round" stroke-linecap="round" stroke-width="0.1000" stroke="currentColor" x1="0.0500" y1="-0.0000" x2="102.8921" y2="-0.0000"/>
<rect transform="translate(68.9535, 17.7743)" x="0.0000" y="-2.0000" width="0.1900" height="4.0000" ry="0.0000" fill="currentColor"/>
<line transform="translate(14.2264, 29.0743)" stroke-linejoin="round" stroke-linecap="round" stroke-width="0.1000" stroke="currentColor" x1="0.0500" y1="-0.0000" x2="102.8921" y2="-0.0000"/>
<line transform="translate(14.2264, 28.0743)" stroke-linejoin="round" stroke-linecap="round" stroke-width="0.1000" stroke="currentColor" x1="0.0500" y1="-0.0000" x2="102.8921" y2="-0.0000"/>
<line transform="translate(14.2264, 27.0743)" stroke-linejoin="round" stroke-linecap="round" stroke-width="0.1000" stroke="currentColor" x1="0.0500" y1="-0.0000" x2="102.8921" y2="-0.0000"/>
<line transform="translate(14.2264, 26.0743)" stroke-linejoin="round" stroke-linecap="round" stroke-width="0.1000" stroke="currentColor" x1="0.0500" y1="-0.0000" x2="102.8921" y2="-0.0000"/>
<line transform="translate(14.2264, 25.0743)" stroke-linejoin="round" stroke-linecap="round" stroke-width="0.1000" stroke="currentColor" x1="0.0500" y1="-0.0000" x2="102.8921" y2="-0.0000"/>
<rect transform="translate(92.1794, 27.0743)" x="0.0000" y="-2.0000" width="0.1900" height="4.0000" ry="0.0000" fill="currentColor"/>
<rect transform="translate(68.9535, 13.9743)" x="0.0000" y="5.8500" width="0.1900" height="5.2000" ry="0.0000" fill="currentColor"/>
<rect transform="translate(45.5779, 13.9743)" x="0.0000" y="5.8500" width="0.1900" height="5.2000" ry="0.0000" fill="currentColor"/>
<rect transform="translate(92.1794, 17.7743)" x="0.0000" y="-2.0000" width="0.1900" height="4.0000" ry="0.0000" fill="currentColor"/>
<rect transform="translate(5.6906, 24.0743)" x="42.2658" y="-0.1000" width="1.8202" height="0.2000" ry="0.1000" fill="currentColor"/>
<rect transform="translate(5.6906, 24.0743)" x="72.3448" y="-0.1000" width="1.9743" height="0.2000" ry="0.1000" fill="currentColor"/>
</svg>
